<?xml version="1.0" encoding="utf-8"?>
<!-- Generator: Adobe Illustrator 24.1.0, SVG Export Plug-In . SVG Version: 6.00 Build 0)  -->
<svg version="1.1" id="Layer_1" xmlns="http://www.w3.org/2000/svg" xmlns:xlink="http://www.w3.org/1999/xlink" x="0px" y="0px"
	 viewBox="0 0 358 56" style="enable-background:new 0 0 358 56;" xml:space="preserve">
<style type="text/css">
	.st0{fill:#EE2936;}
	.st1{fill:#54B4D4;}
	.st2{fill:#727373;}
</style>
<g>
	<path class="st0" d="M31.1,44.8h-9.6c-1.7,0-2.6-1.4-2-3l10.2-30.2c0.6-1.7,2.4-3,4.1-3h9.6c1.7,0,2.6,1.4,2,3L35.1,41.8
		C34.6,43.5,32.8,44.8,31.1,44.8"/>
	<path class="st0" d="M12.5,44.8H2.9c-1.7,0-2.6-1.4-2-3l10.2-30.2c0.6-1.7,2.4-3,4.1-3h9.6c1.7,0,2.6,1.4,2,3L16.5,41.8
		C16,43.5,14.1,44.8,12.5,44.8"/>
	<path class="st0" d="M50,44.8h-9.6c-1.7,0-2.6-1.4-2-3l10.2-30.2c0.6-1.7,2.4-3,4.1-3h9.6c1.7,0,2.6,1.4,2,3L54,41.8
		C53.5,43.5,51.6,44.8,50,44.8"/>
	<path class="st0" d="M97.2,52.3c0,1.8-1.4,3.2-3.2,3.2c-1.8,0-3.2-1.4-3.2-3.2c0-1.8,1.4-3.2,3.2-3.2
		C95.8,49.1,97.2,50.6,97.2,52.3"/>
	<path class="st1" d="M65.4,55.5h-9.6c-1.7,0-2.6-1.4-2-3L70.1,4.2c0.6-1.7,2.4-3,4.1-3h9.6c1.7,0,2.6,1.4,2,3L69.4,52.5
		C68.9,54.2,67.1,55.5,65.4,55.5"/>
	<path class="st1" d="M84.1,55.5h-9.6c-1.7,0-2.6-1.4-2-3l10.2-30.2c0.6-1.7,2.4-3,4.1-3h9.6c1.7,0,2.6,1.4,2,3L88.2,52.5
		C87.6,54.2,85.8,55.5,84.1,55.5"/>
	<path class="st2" d="M149.7,29c0-4.9-2.4-7.6-7.1-7.6c-4.5,0-7.2,2.8-7.2,7.2v16.3h-2.7V29c0-4.9-2.4-7.6-7-7.6
		c-4.6,0-7.2,2.8-7.2,7.6v15.8h-2.7V19.3h2.7v3c1.9-2.2,4.5-3.3,7.6-3.3c3.8,0,6.7,1.6,8.2,4.7c1.9-3,4.9-4.7,8.7-4.7
		c2.8,0,5.1,0.9,6.7,2.4c1.7,1.7,2.7,4.1,2.7,7.1v16.3h-2.7V29z"/>
	<rect x="161.1" y="19.3" class="st2" width="2.7" height="25.5"/>
	<path class="st2" d="M180.6,45.1c-4.5,0-7.7-1.2-10.3-3.7l1.9-1.9c2,2.1,4.8,3.1,8.4,3.1c5,0,7.7-1.7,7.7-5.2
		c0-2.7-1.5-3.9-4.9-4.3l-4.2-0.4c-5.1-0.4-7.7-2.6-7.7-6.7c0-4.5,3.6-7.3,9.2-7.3c3.6,0,6.7,1,9,2.7l-1.8,1.8
		c-2-1.4-4.3-2.2-7.2-2.2c-4.2,0-6.5,1.7-6.5,4.9c0,2.7,1.6,3.9,5.2,4.3l4.1,0.4c4.2,0.4,7.5,1.7,7.5,6.7
		C190.8,42.2,186.9,45.1,180.6,45.1"/>
	<path class="st2" d="M205.2,45.1c-4.5,0-7.7-1.2-10.3-3.7l1.9-1.9c2,2.1,4.8,3.1,8.4,3.1c5,0,7.7-1.7,7.7-5.2
		c0-2.7-1.5-3.9-4.9-4.3l-4.2-0.4c-5.1-0.4-7.7-2.6-7.7-6.7c0-4.5,3.6-7.3,9.2-7.3c3.6,0,6.7,1,9,2.7l-1.8,1.8
		c-2-1.4-4.3-2.2-7.2-2.2c-4.2,0-6.5,1.7-6.5,4.9c0,2.7,1.6,3.9,5.2,4.3l4.1,0.4c4.2,0.4,7.5,1.7,7.5,6.7
		C215.4,42.2,211.5,45.1,205.2,45.1"/>
	<rect x="222.3" y="19.3" class="st2" width="2.7" height="25.5"/>
	<path class="st2" d="M249.9,42.3c-1.9,1.9-4.2,2.8-7.1,2.8c-2.9,0-5.2-1-7.1-2.8c-2.7-2.7-3.2-6.6-3.2-10.3c0-3.7,0.5-7.6,3.2-10.3
		c1.9-1.9,4.2-2.8,7.1-2.8c2.9,0,5.2,1,7.1,2.8c2.7,2.7,3.2,6.6,3.2,10.3C253.1,35.7,252.6,39.6,249.9,42.3 M248.1,23.5
		c-1.4-1.4-3.2-2.2-5.3-2.2c-2.1,0-3.9,0.7-5.3,2.2c-2.1,2.1-2.3,5.6-2.3,8.5c0,3,0.2,6.4,2.3,8.5c1.4,1.4,3.2,2.2,5.3,2.2
		c2.1,0,3.9-0.7,5.3-2.2c2.1-2.1,2.3-5.6,2.3-8.5C250.4,29.1,250.2,25.6,248.1,23.5"/>
	<path class="st2" d="M277.6,29c0-4.9-2.4-7.6-7-7.6c-4.6,0-7.2,2.8-7.2,7.6v15.8h-2.7V19.3h2.7v3c1.9-2.2,4.4-3.3,7.5-3.3
		c2.8,0,5.1,0.8,6.8,2.4c1.7,1.7,2.6,4.1,2.6,7.1v16.3h-2.7V29z"/>
	<path class="st2" d="M315.4,42.9c-1.3,1.3-3.6,2.2-6.3,2.2c-2.9,0-5.3-0.6-7.6-3.6v3.3h-2.7V8.5h2.7v14c2.3-3,4.7-3.6,7.6-3.6
		c2.7,0,4.9,0.9,6.3,2.2c2.6,2.6,3.3,6.8,3.3,10.9C318.7,36.1,318,40.3,315.4,42.9 M308.8,21.3c-6.3,0-7.2,5.4-7.2,10.7
		c0,5.3,1,10.7,7.2,10.7c6.3,0,7.2-5.4,7.2-10.7C316,26.7,315,21.3,308.8,21.3"/>
	<rect x="326.2" y="19.3" class="st2" width="2.7" height="25.5"/>
	<path class="st2" d="M353.8,42.3c-1.9,1.9-4.2,2.8-7.1,2.8c-2.9,0-5.2-1-7.1-2.8c-2.7-2.7-3.2-6.6-3.2-10.3c0-3.7,0.5-7.6,3.2-10.3
		c1.9-1.9,4.2-2.8,7.1-2.8c2.9,0,5.2,1,7.1,2.8c2.7,2.7,3.2,6.6,3.2,10.3C357,35.7,356.5,39.6,353.8,42.3 M352,23.5
		c-1.4-1.4-3.2-2.2-5.3-2.2c-2.1,0-3.9,0.7-5.3,2.2c-2.1,2.1-2.3,5.6-2.3,8.5c0,3,0.2,6.4,2.3,8.5c1.4,1.4,3.2,2.2,5.3,2.2
		c2.1,0,3.9-0.7,5.3-2.2c2.1-2.1,2.3-5.6,2.3-8.5C354.3,29.1,354.1,25.6,352,23.5"/>
	<path class="st2" d="M329.5,14.2c0,1.1-0.9,1.9-1.9,1.9s-1.9-0.9-1.9-1.9c0-1.1,0.9-1.9,1.9-1.9S329.5,13.2,329.5,14.2"/>
	<path class="st2" d="M225.5,14.2c0,1.1-0.9,1.9-1.9,1.9c-1.1,0-1.9-0.9-1.9-1.9c0-1.1,0.9-1.9,1.9-1.9
		C224.7,12.3,225.5,13.2,225.5,14.2"/>
	<path class="st2" d="M164.3,14.2c0,1.1-0.9,1.9-1.9,1.9c-1.1,0-1.9-0.9-1.9-1.9c0-1.1,0.9-1.9,1.9-1.9
		C163.5,12.3,164.3,13.2,164.3,14.2"/>
</g>
</svg>
