<svg xmlns="http://www.w3.org/2000/svg" xmlns:xlink="http://www.w3.org/1999/xlink" viewBox="0 0 528.56 121.95"><defs><style>.cls-1{fill:url(#linear-gradient);}.cls-2{fill:url(#linear-gradient-2);}.cls-3{fill:url(#linear-gradient-3);}.cls-4{fill:url(#linear-gradient-4);}.cls-5{fill:url(#linear-gradient-5);}.cls-6{fill:url(#linear-gradient-6);}</style><linearGradient id="linear-gradient" y1="52.8" x2="102.51" y2="52.8" gradientUnits="userSpaceOnUse"><stop offset="0.01"/><stop offset="0.86" stop-opacity="0.05"/><stop offset="1" stop-opacity="0"/></linearGradient><linearGradient id="linear-gradient-2" x1="9.27" y1="54.04" x2="96.2" y2="54.04" xlink:href="#linear-gradient"/><linearGradient id="linear-gradient-3" x1="19.76" y1="55.45" x2="89.06" y2="55.45" xlink:href="#linear-gradient"/><linearGradient id="linear-gradient-4" x1="19.44" y1="69.15" x2="121.95" y2="69.15" gradientUnits="userSpaceOnUse"><stop offset="0" stop-opacity="0"/><stop offset="0.14" stop-opacity="0.05"/><stop offset="0.99"/></linearGradient><linearGradient id="linear-gradient-5" x1="25.75" y1="67.91" x2="112.68" y2="67.91" xlink:href="#linear-gradient-4"/><linearGradient id="linear-gradient-6" x1="32.89" y1="66.5" x2="102.19" y2="66.5" xlink:href="#linear-gradient-4"/></defs><g id="Layer_2" data-name="Layer 2"><g id="Layer_1-2" data-name="Layer 1"><path d="M186.08,79.07a7.74,7.74,0,0,0-1.78-1.83,6.83,6.83,0,0,0-4.08-1.31,7.33,7.33,0,0,0,0,14.65,7.27,7.27,0,0,0,4.48-1.44A6,6,0,0,0,187,85.68h-8.34V83.17h11.92a11.06,11.06,0,0,1-.86,4.35,10.38,10.38,0,0,1-9.44,5.77,10,10,0,1,1,0-20.08,10.11,10.11,0,0,1,9.28,5.86Z"/><path d="M198.5,73.58h10.83V76.3h-7.74v5.49h7.64v2.69h-7.64v5.73h7.74v2.72H198.5Z"/><path d="M230.72,88.3l-.05-14.72h3V92.93h-2.82L220.71,78.18l0,14.75h-3V73.58h2.9Z"/><path d="M240.86,83.36A10.13,10.13,0,1,1,251,93.29a9.93,9.93,0,0,1-10.09-9.93Zm3.06-.11A7.07,7.07,0,1,0,251,75.93a7.11,7.11,0,0,0-7.08,7.32Z"/><path d="M268.3,92.93V73.58h4.24l6,15,5.94-15h4.21V92.93h-2.85l.08-16.32-6.41,16.32h-2L271.1,76.61l.08,16.32Z"/><path d="M297.67,73.58h3.08V92.93h-3.08Z"/><path d="M328.19,87.05A9.59,9.59,0,0,1,319,93.29a10,10,0,1,1,0-20.08,9.84,9.84,0,0,1,9.23,6.36H325a6.85,6.85,0,0,0-6-3.64,7.33,7.33,0,0,0,0,14.65,7,7,0,0,0,6-3.53Z"/><path d="M338.25,87.2c.21,2.9,2.25,3.48,3.27,3.48a3.17,3.17,0,0,0,3.22-3.09c0-2.14-1.83-2.64-4.32-3.55-1.51-.5-4.88-1.62-4.88-5.26s3-5.57,6.09-5.57c2.48,0,5.59,1.36,5.83,5.34h-3c-.21-1-.68-2.72-2.91-2.72a2.77,2.77,0,0,0-2.93,2.72c0,1.88,1.44,2.35,4.55,3.5,2.41,1,4.66,2.25,4.66,5.39s-2.12,5.85-6.25,5.85c-3.84,0-6.3-2.35-6.36-6.09Z"/><path d="M173.81,45.72c.25,3.54,2.74,4.24,4,4.24a3.87,3.87,0,0,0,3.93-3.77c0-2.61-2.24-3.22-5.26-4.33-1.85-.61-6-2-6-6.41s3.73-6.79,7.43-6.79c3,0,6.83,1.66,7.11,6.5h-3.7c-.25-1.27-.82-3.31-3.54-3.31a3.37,3.37,0,0,0-3.57,3.31c0,2.3,1.76,2.87,5.55,4.28,2.94,1.24,5.68,2.74,5.68,6.56s-2.59,7.15-7.62,7.15c-4.69,0-7.69-2.87-7.75-7.43Z"/><path d="M215.93,29.1h3.76V52.7h-3.76Z"/><path d="M270.7,47.05l-.06-17.95h3.63V52.7h-3.44l-12.34-18,.06,18h-3.63V29.1h3.54Z"/><path d="M325,35.8a9.58,9.58,0,0,0-2.17-2.23,8.34,8.34,0,0,0-5-1.6,8.58,8.58,0,0,0-8.64,8.87,8.59,8.59,0,0,0,8.64,9,8.91,8.91,0,0,0,5.46-1.75,7.31,7.31,0,0,0,2.77-4.21H315.94V40.81h14.54a13.48,13.48,0,0,1-1.05,5.29,12.66,12.66,0,0,1-11.52,7,12.25,12.25,0,1,1,0-24.49,12.34,12.34,0,0,1,11.32,7.14Z"/><path d="M366.36,29.1V43.83a7,7,0,0,0,.86,4.12,4.19,4.19,0,0,0,3.63,1.88A4,4,0,0,0,374.42,48a6.8,6.8,0,0,0,.9-4.18V29.1h3.73V43.83c0,3.13-.48,5.52-2.56,7.24a8.1,8.1,0,0,1-5.61,2.08,8.4,8.4,0,0,1-5.71-2c-2.32-2.07-2.61-4.4-2.58-7.27V29.1Z"/><path d="M416.69,29.1h3.76V49.38h8.32V52.7H416.69Z"/><path d="M462.35,52.7h-4.08L468,29.1h3.42l9.53,23.6h-4.08l-2.23-5.58H464.52Zm7.18-19.23-4,10.62h8Z"/><path d="M511.91,29.1h6.67c3.7,0,5.61.51,6.85,1.38a7.56,7.56,0,0,1,3.13,6.37,8,8,0,0,1-1.34,4.5,6.41,6.41,0,0,1-4.56,2.58l5.55,8.77h-4l-6.47-10.65h.83c1.62,0,3.6-.06,4.72-1a5,5,0,0,0,1.62-3.86,4.83,4.83,0,0,0-2-4,7.53,7.53,0,0,0-4-.76h-3.23V52.7h-3.76Z"/><path class="cls-1" d="M2.16,61A58.77,58.77,0,0,1,101,18l1.49-1.6a61,61,0,1,0-83.07,89.23l1.49-1.6A58.66,58.66,0,0,1,2.16,61Z"/><path class="cls-2" d="M11.43,61A49.51,49.51,0,0,1,94.71,24.74l1.49-1.6A51.69,51.69,0,1,0,25.75,98.81l1.49-1.6A49.42,49.42,0,0,1,11.43,61Z"/><path class="cls-3" d="M21.92,61A39,39,0,0,1,87.57,32.41l1.49-1.6A41.22,41.22,0,0,0,32.89,91.14l1.49-1.6A38.93,38.93,0,0,1,21.92,61Z"/><path class="cls-4" d="M102.51,16.36,101,18a58.77,58.77,0,1,1-80.09,86l-1.49,1.6a61,61,0,1,0,83.07-89.23Z"/><path class="cls-5" d="M112.68,61A51.53,51.53,0,0,0,96.2,23.14l-1.49,1.6A49.51,49.51,0,1,1,27.24,97.21l-1.49,1.6A51.69,51.69,0,0,0,112.68,61Z"/><path class="cls-6" d="M102.19,61A41.1,41.1,0,0,0,89.06,30.81l-1.49,1.6A39,39,0,1,1,34.38,89.54l-1.49,1.6A41.22,41.22,0,0,0,102.19,61Z"/></g></g></svg>