<?xml version="1.0" encoding="utf-8"?>
<!-- Generator: Adobe Illustrator 23.0.6, SVG Export Plug-In . SVG Version: 6.00 Build 0)  -->
<svg version="1.1" id="Layer_1" xmlns="http://www.w3.org/2000/svg" xmlns:xlink="http://www.w3.org/1999/xlink" x="0px" y="0px"
	 width="500.0010071px" height="168.8000031px" viewBox="0 0 500.0010071 168.8000031"
	 style="enable-background:new 0 0 500.0010071 168.8000031;" xml:space="preserve">
<g>
	<path style="fill:#8DC63F;" d="M84.669754,64.6479187H65.5680542c-1.3049927,0-2.3667717,1.0617752-2.3667717,2.3667679v0.8623734
		c0,1.3053207,1.061779,2.3670959,2.3667717,2.3670959H84.669754c1.3049927,0,2.3667679-1.0617752,2.3667679-2.3670959v-0.8623734
		C87.0365219,65.7096939,85.9747467,64.6479187,84.669754,64.6479187z"/>
	<path style="fill:#8DC63F;" d="M113.6331635,52.9776993H70.6923599c-1.2627945,0-2.2901077,1.0273094-2.2901077,2.2901039
		v1.0163536c0,1.2624741,1.0273132,2.2897835,2.2901077,2.2897835h42.9408035c1.2624664,0,2.2897797-1.0273094,2.2897797-2.2897835
		v-1.0163536C115.9229431,54.0050087,114.8956299,52.9776993,113.6331635,52.9776993z"/>
	<path style="fill:#8DC63F;" d="M68.4022522,31.9276924v1.0163574c0,1.2624702,1.0273132,2.2897797,2.2901077,2.2897797h42.9408035
		c1.2624664,0,2.2897797-1.0273094,2.2897797-2.2897797v-1.0163574c0-1.2627945-1.0273132-2.2901039-2.2897797-2.2901039H70.6923599
		C69.4295654,29.6375885,68.4022522,30.6648979,68.4022522,31.9276924z"/>
	<path style="fill:#8DC63F;" d="M123.8063889,41.3078041H73.1277466c-1.3049927,0-2.3667755,1.061779-2.3667755,2.3667755v0.8623695
		c0,1.3053169,1.0617828,2.3670959,2.3667755,2.3670959h50.6786423c1.3049927,0,2.3667679-1.061779,2.3667679-2.3670959v-0.8623695
		C126.1731567,42.3695831,125.1113815,41.3078041,123.8063889,41.3078041z"/>
	<path style="fill:#8DC63F;" d="M66.0438614,20.3344688v0.8623714c0,1.3053169,1.0617752,2.3670959,2.3670883,2.3670959h19.1013794
		c1.3053131,0,2.3670959-1.061779,2.3670959-2.3670959v-0.8623714c0-1.3049946-1.0617828-2.3667736-2.3670959-2.3667736H68.4109497
		C67.1056366,17.9676952,66.0438614,19.0294743,66.0438614,20.3344688z"/>
	<path style="fill:#8DC63F;" d="M65.9752426,11.8937197h3.5161743c1.2624741,0,2.2897797-1.0273085,2.2897797-2.2897806V8.5875826
		c0-1.262794-1.0273056-2.290103-2.2897797-2.290103h-3.5161743c-1.2624741,0-2.2897797,1.0273089-2.2897797,2.290103v1.0163565
		C63.685463,10.8664112,64.7127686,11.8937197,65.9752426,11.8937197z"/>
</g>
<g>
	<path style="fill:#1B75BC;" d="M64.5165863,76.3178101h-3.5158501c-1.2627945,0-2.2901039,1.0273056-2.2901039,2.2901001v1.0163574
		c0,1.2624741,1.0273094,2.2897797,2.2901039,2.2897797h3.5158501c1.2627945,0,2.2901001-1.0273056,2.2901001-2.2897797v-1.0163574
		C66.8066864,77.3451157,65.7793808,76.3178101,64.5165863,76.3178101z"/>
	<path style="fill:#1B75BC;" d="M68.1757889,32.0046844v0.8623734c0,1.3049927,1.0617828,2.3667717,2.3670959,2.3667717h21.9442749
		c1.3049927,0,2.3667679-1.061779,2.3667679-2.3667717v-0.8623734c0-1.3053169-1.0617752-2.3670959-2.3667679-2.3670959H70.5428848
		C69.2375717,29.6375885,68.1757889,30.6993675,68.1757889,32.0046844z"/>
	<path style="fill:#1B75BC;" d="M92.4871597,52.9776993H70.5428848c-1.3053131,0-2.3670959,1.061779-2.3670959,2.3670959v0.8623695
		c0,1.3049965,1.0617828,2.3667755,2.3670959,2.3667755h21.9442749c1.3049927,0,2.3667679-1.061779,2.3667679-2.3667755v-0.8623695
		C94.8539276,54.0394783,93.7921524,52.9776993,92.4871597,52.9776993z"/>
	<path style="fill:#1B75BC;" d="M74.7204132,64.6479187h-9.152359c-1.3049927,0-2.3667717,1.0617752-2.3667717,2.3667679v0.8623734
		c0,1.3053207,1.061779,2.3670959,2.3667717,2.3670959h9.152359c1.3049927,0,2.3667755-1.0617752,2.3667755-2.3670959v-0.8623734
		C77.0871887,65.7096939,76.0254059,64.6479187,74.7204132,64.6479187z"/>
	<path style="fill:#1B75BC;" d="M68.408699,23.6138668h9.1520386c1.3049927,0,2.3667679-1.0617771,2.3667679-2.3667717v-0.8623734
		c0-1.3053169-1.0617752-2.367094-2.3667679-2.367094H68.408699c-1.3053207,0-2.3670959,1.0617771-2.3670959,2.367094v0.8623734
		C66.0416031,22.5520897,67.1033783,23.6138668,68.408699,23.6138668z"/>
	<path style="fill:#1B75BC;" d="M99.3358841,41.3078041H73.1277466c-1.3049927,0-2.3667755,1.061779-2.3667755,2.3667755v0.8623695
		c0,1.3053169,1.0617828,2.3670959,2.3667755,2.3670959h26.2081375c1.3053131,0,2.3670959-1.061779,2.3670959-2.3670959v-0.8623695
		C101.70298,42.3695831,100.6411972,41.3078041,99.3358841,41.3078041z"/>
	<path style="fill:#1B75BC;" d="M61.3789291,126.013916v-1.0166779c0-1.2627945-1.0273094-2.2897797-2.2897797-2.2897797H16.1483459
		c-1.2627945,0-2.290103,1.0269852-2.290103,2.2897797v1.0166779c0,1.2627945,1.0273085,2.2897797,2.290103,2.2897797h42.9408035
		C60.3516197,128.3036957,61.3789291,127.2767105,61.3789291,126.013916z"/>
	<path style="fill:#1B75BC;" d="M14.7267361,104.9635849h42.941124c1.2624702,0,2.2897797-1.0273056,2.2897797-2.2901001v-1.0163574
		c0-1.2624741-1.0273094-2.2897797-2.2897797-2.2897797h-42.941124c-1.2624722,0-2.2897806,1.0273056-2.2897806,2.2897797v1.0163574
		C12.4369555,103.9362793,13.4642639,104.9635849,14.7267361,104.9635849z"/>
	<path style="fill:#1B75BC;" d="M57.5992432,114.2667084v-0.8623734c0-1.3053131-1.0617752-2.3670959-2.3670921-2.3670959H4.5538335
		c-1.3053172,0-2.367095,1.0617828-2.367095,2.3670959v0.8623734c0,1.3049927,1.0617778,2.3667755,2.367095,2.3667755h50.678318
		C56.537468,116.6334839,57.5992432,115.571701,57.5992432,114.2667084z"/>
	<path style="fill:#1B75BC;" d="M42.2691803,93.2933731h19.1013718c1.3049965,0,2.3667755-1.0617828,2.3667755-2.3667755v-0.8623734
		c0-1.3053131-1.061779-2.3670959-2.3667755-2.3670959H42.2691803c-1.3053169,0-2.3670959,1.0617828-2.3670959,2.3670959v0.8623734
		C39.9020844,92.2315903,40.9638634,93.2933731,42.2691803,93.2933731z"/>
	<path style="fill:#1B75BC;" d="M63.5024834,134.3773499H44.4011116c-1.3053169,0-2.3670959,1.0617828-2.3670959,2.3670959
		v0.8620453c0,1.3053284,1.061779,2.3670959,2.3670959,2.3670959h19.1013718c1.3053169,0,2.3670998-1.0617676,2.3670998-2.3670959
		v-0.8620453C65.8695831,135.4391327,64.8078003,134.3773499,63.5024834,134.3773499z"/>
</g>
<g>
	<path style="fill:#8DC63F;" d="M68.7807693,146.0472412H65.264595c-1.2624664,0-2.2897758,1.0276337-2.2897758,2.2904205v1.016037
		c0,1.2628021,1.0273094,2.2897797,2.2897758,2.2897797h3.5161743c1.2624741,0,2.2897797-1.0269775,2.2897797-2.2897797v-1.016037
		C71.070549,147.0748749,70.0432434,146.0472412,68.7807693,146.0472412z"/>
	<path style="fill:#8DC63F;" d="M50.7105713,93.2933731c1.3049965,0,2.3667755-1.0617828,2.3667755-2.3667755v-0.8623734
		c0-1.3053131-1.061779-2.3670959-2.3667755-2.3670959h-8.441391c-1.3053169,0-2.3670959,1.0617828-2.3670959,2.3670959v0.8623734
		c0,1.3049927,1.061779,2.3667755,2.3670959,2.3667755H50.7105713z"/>
	<path style="fill:#8DC63F;" d="M52.1318588,134.3773499h-7.7307472c-1.3053169,0-2.3670959,1.0617828-2.3670959,2.3670959
		v0.8620453c0,1.3053284,1.061779,2.3670959,2.3670959,2.3670959h7.7307472c1.3049965,0,2.3667755-1.0617676,2.3667755-2.3670959
		v-0.8620453C54.4986343,135.4391327,53.4368553,134.3773499,52.1318588,134.3773499z"/>
	<path style="fill:#8DC63F;" d="M14.8040504,104.9635849h20.5226593c1.3053169,0,2.3670959-1.0617752,2.3670959-2.3670959
		v-0.8623657c0-1.3050003-1.061779-2.3667755-2.3670959-2.3667755H14.8040504c-1.3053169,0-2.367095,1.0617752-2.367095,2.3667755
		v0.8623657C12.4369555,103.9018097,13.4987335,104.9635849,14.8040504,104.9635849z"/>
	<path style="fill:#8DC63F;" d="M38.1692848,122.7074585H16.225338c-1.3053169,0-2.367095,1.0617752-2.367095,2.3670959v0.8620453
		c0,1.3053207,1.0617781,2.3670959,2.367095,2.3670959h21.9439468c1.3053169,0,2.3670959-1.0617752,2.3670959-2.3670959v-0.8620453
		C40.5363808,123.7692337,39.4746017,122.7074585,38.1692848,122.7074585z"/>
	<path style="fill:#8DC63F;" d="M33.1290627,114.2667084v-0.8623734c0-1.3053131-1.061779-2.3670959-2.367094-2.3670959H4.5538335
		c-1.3053172,0-2.367095,1.0617828-2.367095,2.3670959v0.8623734c0,1.3049927,1.0617778,2.3667755,2.367095,2.3667755h26.2081356
		C32.0672836,116.6334839,33.1290627,115.571701,33.1290627,114.2667084z"/>
</g>
<g>
	<g>
		<path style="fill:#1B75BC;" d="M125.3855743,92.9634781v6.9160156h-12.1166992v34.5497971h-8.6015625V99.8794937H92.5506134
			v-6.9160156H125.3855743z"/>
		<path style="fill:#1B75BC;" d="M128.8142853,92.9634781h7.2011719c0.7431641,0,1.3671875,0.171875,1.8720703,0.5146484
			c0.5043945,0.3427734,0.8330078,0.7998047,0.9858398,1.3720703l6.4296875,23.3759766
			c0.1523438,0.6669922,0.3095703,1.3710938,0.4716797,2.1142578c0.1616211,0.7431641,0.3188477,1.5341797,0.4716797,2.3720703
			c0.1713867-0.8378906,0.3520508-1.6328125,0.5429688-2.3857422c0.1899414-0.7529297,0.3999023-1.453125,0.628418-2.1005859
			l7.4873047-23.3759766c0.1523438-0.4765625,0.480957-0.9101562,0.9858398-1.3007812
			c0.5048828-0.3896484,1.1191406-0.5859375,1.8432617-0.5859375h2.5146484c0.7431641,0,1.3476562,0.1767578,1.8149414,0.5292969
			c0.4667969,0.3525391,0.8144531,0.8046875,1.0429688,1.3574219l7.4584961,23.3759766
			c0.2094727,0.609375,0.4145508,1.2763672,0.6147461,2c0.199707,0.7246094,0.3759766,1.4863281,0.5283203,2.2861328
			c0.1523438-0.7998047,0.3046875-1.5615234,0.4575195-2.2861328c0.1523438-0.7236328,0.3046875-1.390625,0.4570312-2
			l6.4301758-23.3759766c0.1328125-0.4951172,0.4570312-0.9335938,0.9716797-1.3144531
			c0.5141602-0.3808594,1.1328125-0.5722656,1.8574219-0.5722656h6.7441406l-12.8598633,41.4658127h-7.7441406l-8.487793-27.1201096
			c-0.1523438-0.3808594-0.2905273-0.7998047-0.4140625-1.2568359c-0.1245117-0.4570312-0.2431641-0.9335938-0.3574219-1.4287109
			c-0.1333008,0.4951172-0.262207,0.9716797-0.3857422,1.4287109c-0.1240234,0.4570312-0.2529297,0.8759766-0.3857422,1.2568359
			l-8.5732422,27.1201096H141.64534L128.8142853,92.9634781z"/>
		<path style="fill:#1B75BC;" d="M204.2005157,134.4292908h-8.6303711V92.9634781h8.6303711V134.4292908z"/>
		<path style="fill:#1B75BC;" d="M220.6175079,93.0064468c0.2573242,0.0283203,0.4902344,0.0957031,0.7001953,0.2001953
			c0.2094727,0.1054688,0.409668,0.2431641,0.6000977,0.4140625c0.1904297,0.171875,0.3999023,0.4003906,0.6289062,0.6865234
			l20.8041992,26.4335938c-0.0766602-0.7236328-0.1337891-1.4287109-0.1713867-2.1142578
			c-0.0385742-0.6865234-0.0576172-1.3339844-0.0576172-1.9433594V92.9634781h7.5732422v41.4658127h-4.4296875
			c-0.6669922,0-1.2285156-0.109375-1.6860352-0.3291016c-0.4570312-0.21875-0.9047852-0.5947266-1.3427734-1.1279297
			l-20.6616211-26.2626877c0.0571289,0.6669922,0.1000977,1.3193359,0.1289062,1.9570312
			c0.0283203,0.6386719,0.0424805,1.234375,0.0424805,1.7861328v23.9765549h-7.5727539V92.9634781h4.5151367
			C220.0506134,92.9634781,220.3601837,92.9781265,220.6175079,93.0064468z"/>
		<path style="fill:#8DC63F;" d="M284.1302185,100.907814c-0.2666016,0.4384766-0.5380859,0.7578125-0.8144531,0.9580078
			s-0.6333008,0.2998047-1.0712891,0.2998047c-0.4194336,0-0.871582-0.1474609-1.3574219-0.4433594
			c-0.4858398-0.2949219-1.0532227-0.6142578-1.7006836-0.9570312s-1.390625-0.6611328-2.2290039-0.9570312
			c-0.8383789-0.2949219-1.8193359-0.4433594-2.9433594-0.4433594c-1.9814453,0-3.4677734,0.4433594-4.4580078,1.3291016
			c-0.9907227,0.8857422-1.4858398,2.0429688-1.4858398,3.4716797c0,0.9150391,0.2714844,1.671875,0.8144531,2.2724609
			c0.5429688,0.5996094,1.2573242,1.1191406,2.1430664,1.5576172c0.8862305,0.4384766,1.890625,0.828125,3.0151367,1.1708984
			c1.1235352,0.34375,2.2763672,0.7197266,3.4575195,1.1289062c1.1811523,0.4101562,2.3334961,0.8916016,3.4580078,1.4433594
			c1.1240234,0.5527344,2.1289062,1.2480469,3.0151367,2.0859375c0.8857422,0.8388672,1.6000977,1.8623047,2.1430664,3.0722656
			s0.8144531,2.6816406,0.8144531,4.4150391c0,1.8867188-0.3286133,3.6533203-0.9858398,5.3017578
			c-0.6572266,1.6474533-1.6054688,3.0859299-2.8432617,4.3144455c-1.2387695,1.2294922-2.7675781,2.1962891-4.5869141,2.9003906
			c-1.8193359,0.7050781-3.8818359,1.0576172-6.1870117,1.0576172c-1.3144531,0-2.6245117-0.1337891-3.9291992-0.3994141
			c-1.3051758-0.2666016-2.5625-0.6386719-3.7724609-1.1152344c-1.2099609-0.4755859-2.3481445-1.046875-3.4145508-1.7148438
			c-1.0673828-0.6660156-2.0004883-1.4091797-2.8007812-2.2285156l2.5146484-4.0576096
			c0.2094727-0.3046875,0.4858398-0.5576172,0.8291016-0.7578125c0.3427734-0.2001953,0.7045898-0.2998047,1.0859375-0.2998047
			c0.5141602,0,1.0571289,0.1904297,1.6289062,0.5712891c0.5712891,0.3818359,1.2285156,0.8007812,1.9716797,1.2578125
			s1.6044922,0.8759766,2.5859375,1.2568359c0.9814453,0.3818359,2.1577148,0.5722656,3.5292969,0.5722656
			c2.0004883,0,3.5483398-0.4580078,4.644043-1.3720703c1.0952148-0.9140625,1.6430664-2.2763672,1.6430664-4.0869141
			c0-1.046875-0.2714844-1.8955078-0.8144531-2.5429688s-1.2529297-1.1904297-2.1289062-1.6289062
			c-0.8764648-0.4384766-1.8769531-0.8144531-3.0004883-1.1289062c-1.1245117-0.3144531-2.2768555-0.6621094-3.4580078-1.0429688
			c-1.1816406-0.3808594-2.3339844-0.8378906-3.4580078-1.3720703c-1.1240234-0.5332031-2.1245117-1.2382812-3.0004883-2.1142578
			c-0.8764648-0.8759766-1.5859375-1.9619141-2.1289062-3.2578125s-0.8144531-2.9052734-0.8144531-4.8300781
			c0-1.5429688,0.3046875-3.0380859,0.9145508-4.4863281c0.609375-1.4472656,1.5048828-2.7333984,2.6860352-3.8574219
			s2.6337891-2.0292969,4.3579102-2.7148438c1.7241211-0.6865234,3.7011719-1.0292969,5.9301758-1.0292969
			c2.4956055,0,4.8051758,0.3857422,6.9296875,1.1572266c2.1240234,0.7714844,3.9194336,1.84375,5.3867188,3.2148438
			L284.1302185,100.907814z"/>
		<path style="fill:#8DC63F;" d="M324.7952576,92.9634781v6.9160156h-12.1166992v34.5497971h-8.6015625V99.8794937h-12.1166992
			v-6.9160156H324.7952576z"/>
		<path style="fill:#8DC63F;" d="M340.8269958,118.626564v15.8027267h-8.5732422V92.9634781h13.03125
			c2.8955078,0,5.3725586,0.3007812,7.4301758,0.9003906c2.0576172,0.6005859,3.7436523,1.4335938,5.0581055,2.5009766
			c1.3144531,1.0664062,2.2763672,2.3388672,2.8862305,3.8144531c0.609375,1.4765625,0.9145508,3.1005859,0.9145508,4.8730469
			c0,1.3710938-0.1958008,2.671875-0.5859375,3.9003906c-0.390625,1.2285156-0.9575195,2.3486328-1.7001953,3.3574219
			c-0.7431641,1.0107422-1.6577148,1.9052734-2.7436523,2.6865234s-2.3339844,1.4101562-3.7436523,1.8857422
			c0.5522461,0.3056641,1.0717773,0.671875,1.5576172,1.1005859s0.9189453,0.9384766,1.300293,1.5292969l9.6591797,14.9169846
			h-7.7446289c-1.4482422,0-2.4960938-0.5527344-3.1435547-1.6572266l-7.887207-12.7167892
			c-0.3242188-0.4951172-0.6811523-0.8574219-1.0717773-1.0859375s-0.9667969-0.3427734-1.7290039-0.3427734H340.8269958z
			 M340.8269958,112.5962906h4.4008789c1.3901367,0,2.5908203-0.1757812,3.6005859-0.5283203
			s1.8383789-0.8388672,2.4863281-1.4580078c0.6474609-0.6181641,1.1240234-1.3476562,1.4287109-2.1855469
			c0.3046875-0.8388672,0.4575195-1.7529297,0.4575195-2.7441406c0-1.9619141-0.652832-3.4863281-1.9575195-4.5722656
			c-1.3051758-1.0859375-3.2915039-1.6289062-5.9584961-1.6289062h-4.4580078V112.5962906z"/>
		<path style="fill:#8DC63F;" d="M407.953949,134.4292908h-6.6582031c-0.7431641,0-1.3481445-0.1757812-1.8149414-0.5283203
			s-0.8144531-0.8046875-1.0429688-1.3574219l-2.8007812-7.916008h-16.5175781l-2.800293,7.916008
			c-0.190918,0.4765625-0.5244141,0.9091797-1.0004883,1.2998047s-1.0761719,0.5859375-1.800293,0.5859375h-6.715332
			l16.203125-41.4658127h8.7729492L407.953949,134.4292908z M381.2059021,118.6832047h12.3452148l-4.4868164-12.6884766
			c-0.2666016-0.6660156-0.5478516-1.4472656-0.8427734-2.3427734c-0.2958984-0.8955078-0.5859375-1.8574219-0.871582-2.8867188
			c-0.2670898,1.0478516-0.5429688,2.0244141-0.8286133,2.9296875c-0.2861328,0.9042969-0.5625,1.6904297-0.8291016,2.3574219
			L381.2059021,118.6832047z"/>
		<path style="fill:#8DC63F;" d="M419.513031,93.0064468c0.2573242,0.0283203,0.4902344,0.0957031,0.7001953,0.2001953
			c0.2094727,0.1054688,0.409668,0.2431641,0.6000977,0.4140625c0.1904297,0.171875,0.3999023,0.4003906,0.6289062,0.6865234
			l20.8041992,26.4335938c-0.0766602-0.7236328-0.1337891-1.4287109-0.1713867-2.1142578
			c-0.0385742-0.6865234-0.0576172-1.3339844-0.0576172-1.9433594V92.9634781h7.5732422v41.4658127h-4.4296875
			c-0.6669922,0-1.2285156-0.109375-1.6860352-0.3291016c-0.4570312-0.21875-0.9047852-0.5947266-1.3427734-1.1279297
			l-20.6616211-26.2626877c0.0571289,0.6669922,0.1000977,1.3193359,0.1289062,1.9570312
			c0.0283203,0.6386719,0.0424805,1.234375,0.0424805,1.7861328v23.9765549h-7.5727539V92.9634781h4.5151367
			C418.9461365,92.9634781,419.2557068,92.9781265,419.513031,93.0064468z"/>
		<path style="fill:#8DC63F;" d="M497.7430115,113.6822281c0,3.0292969-0.5097656,5.8154297-1.5288086,8.3583984
			c-1.019043,2.5439453-2.4575195,4.7304688-4.3149414,6.5585861c-1.8574219,1.8291016-4.0913086,3.2578125-6.7016602,4.2871094
			c-2.6103516,1.0283203-5.5058594,1.5429688-8.6870117,1.5429688h-15.9462891V92.9634781h15.9462891
			c3.1811523,0,6.0766602,0.5146484,8.6870117,1.5439453c2.6103516,1.0283203,4.8442383,2.4619141,6.7016602,4.3007812
			s3.2958984,4.0244141,4.3149414,6.5576172C497.2332458,107.9000015,497.7430115,110.6724625,497.7430115,113.6822281z
			 M488.9412537,113.6822281c0-2.171875-0.2856445-4.1240234-0.8569336-5.8583984
			c-0.5717773-1.7333984-1.3911133-3.2001953-2.4580078-4.4003906s-2.3671875-2.1240234-3.9003906-2.7724609
			c-1.5341797-0.6474609-3.2724609-0.9716797-5.215332-0.9716797h-7.315918v28.0341797h7.315918
			c1.9428711,0,3.6811523-0.3183594,5.215332-0.9570312c1.5332031-0.6386719,2.8334961-1.5625,3.9003906-2.7724609
			c1.0668945-1.2089844,1.8862305-2.6806641,2.4580078-4.4150391
			C488.6556091,117.8355484,488.9412537,115.8736343,488.9412537,113.6822281z"/>
	</g>
</g>
<g>
	<g>
		<path style="fill:#1B75BC;" d="M104.3289337,164.7085876v-15.4550781h5.4853516
			c1.0366211,0,1.9228516,0.0976562,2.6577148,0.2929688s1.3349609,0.4716797,1.800293,0.8300781
			c0.4648438,0.359375,0.8037109,0.7939453,1.0170898,1.3056641c0.2128906,0.5107422,0.3193359,1.0820312,0.3193359,1.7148438
			c0,0.3544922-0.0512695,0.6953125-0.1542969,1.0224609c-0.1030273,0.3261719-0.2626953,0.6337891-0.4794922,0.9208984
			c-0.2167969,0.2880859-0.4951172,0.5488281-0.8359375,0.7832031s-0.7456055,0.4326172-1.2143555,0.5966797
			c2.059082,0.4824219,3.0888672,1.6152344,3.0888672,3.3974609c0,0.6533203-0.1259766,1.2607422-0.3779297,1.8212891
			c-0.2524414,0.5615234-0.6196289,1.0478516-1.1025391,1.4589844c-0.4829102,0.4121094-1.0776367,0.7333984-1.7841797,0.9648438
			c-0.706543,0.2304688-1.5175781,0.3457031-2.434082,0.3457031H104.3289337z M107.5242462,155.8570251h2.0986328
			c0.4472656,0,0.8447266-0.0371094,1.1928711-0.1113281c0.3476562-0.0751953,0.6391602-0.1933594,0.8735352-0.3574219
			c0.2338867-0.1630859,0.4135742-0.3779297,0.5375977-0.6445312c0.1240234-0.265625,0.1865234-0.5869141,0.1865234-0.9638672
			c0-0.3828125-0.0517578-0.7099609-0.1542969-0.9794922c-0.1030273-0.2695312-0.2612305-0.4863281-0.4741211-0.6503906
			c-0.2128906-0.1630859-0.4829102-0.2822266-0.8095703-0.3564453s-0.7138672-0.1113281-1.1611328-0.1113281h-2.2900391V155.8570251
			z M107.5242462,158.0298767v4.2285156h2.7373047c0.5112305,0,0.9321289-0.0615234,1.262207-0.1865234
			c0.3305664-0.1240234,0.5947266-0.2890625,0.7939453-0.4951172c0.1987305-0.2060547,0.3369141-0.4414062,0.4150391-0.7080078
			s0.1171875-0.5410156,0.1171875-0.8251953c0-0.3125-0.0458984-0.5927734-0.1381836-0.8417969
			c-0.0922852-0.2480469-0.2416992-0.4599609-0.4477539-0.6337891c-0.2055664-0.1738281-0.4736328-0.3066406-0.8037109-0.3994141
			c-0.3305664-0.0917969-0.7368164-0.1386719-1.2197266-0.1386719H107.5242462z"/>
		<path style="fill:#1B75BC;" d="M128.9236603,164.7085876h-3.2167969v-15.4550781h3.2167969V164.7085876z"/>
		<path style="fill:#1B75BC;" d="M154.3382111,156.9751892c0,1.1298828-0.1904297,2.1767578-0.5703125,3.1425781
			s-0.9160156,1.7998047-1.6083984,2.5029297c-0.6918945,0.703125-1.5249023,1.2558594-2.4975586,1.65625
			c-0.9731445,0.4013672-2.0522461,0.6025391-3.2382812,0.6025391c-1.1855469,0-2.2651367-0.2011719-3.237793-0.6025391
			c-0.9731445-0.4003906-1.8071289-0.953125-2.5029297-1.65625c-0.6962891-0.703125-1.234375-1.5371094-1.6137695-2.5029297
			c-0.3803711-0.9658203-0.5698242-2.0126953-0.5698242-3.1425781c0-1.1289062,0.1894531-2.1738281,0.5698242-3.1367188
			c0.3793945-0.9619141,0.9174805-1.7949219,1.6137695-2.4980469c0.6958008-0.7021484,1.5297852-1.2548828,2.5029297-1.65625
			c0.9726562-0.4003906,2.0522461-0.6015625,3.237793-0.6015625c1.1860352,0,2.2651367,0.2011719,3.2382812,0.6015625
			c0.9726562,0.4013672,1.8056641,0.9550781,2.4975586,1.6621094c0.6923828,0.7070312,1.2285156,1.5410156,1.6083984,2.5029297
			C154.1477814,154.8121033,154.3382111,155.8540955,154.3382111,156.9751892z M151.0681915,156.9751892
			c0-0.8095703-0.1069336-1.5351562-0.3198242-2.1777344s-0.5200195-1.1894531-0.9213867-1.640625
			s-0.8876953-0.7949219-1.4589844-1.0332031c-0.5717773-0.2373047-1.2197266-0.3564453-1.9443359-0.3564453
			c-0.7241211,0-1.3740234,0.1191406-1.9492188,0.3564453c-0.5751953,0.2382812-1.0634766,0.5820312-1.4643555,1.0332031
			c-0.4013672,0.4511719-0.7084961,0.9980469-0.9213867,1.640625s-0.3193359,1.3681641-0.3193359,2.1777344
			c0,0.8173828,0.1064453,1.546875,0.3193359,2.1894531s0.5200195,1.1875,0.9213867,1.6347656
			c0.4008789,0.4472656,0.8891602,0.7900391,1.4643555,1.0283203c0.5751953,0.2373047,1.2250977,0.3564453,1.9492188,0.3564453
			c0.7246094,0,1.3725586-0.1191406,1.9443359-0.3564453c0.5712891-0.2382812,1.0576172-0.5810547,1.4589844-1.0283203
			s0.7084961-0.9921875,0.9213867-1.6347656S151.0681915,157.792572,151.0681915,156.9751892z"/>
		<path style="fill:#1B75BC;" d="M172.2957306,152.214447c-0.0996094,0.1630859-0.2006836,0.2822266-0.3037109,0.3564453
			c-0.1030273,0.0751953-0.2358398,0.1123047-0.3994141,0.1123047c-0.15625,0-0.324707-0.0546875-0.5058594-0.1650391
			s-0.3925781-0.2294922-0.6337891-0.3574219c-0.2416992-0.1279297-0.5185547-0.2460938-0.8310547-0.3564453
			s-0.6777344-0.1650391-1.0966797-0.1650391c-0.7387695,0-1.2924805,0.1650391-1.6616211,0.4951172
			c-0.3696289,0.3300781-0.5541992,0.7617188-0.5541992,1.2939453c0,0.3408203,0.1010742,0.6230469,0.3037109,0.8466797
			c0.2021484,0.2236328,0.46875,0.4179688,0.7988281,0.5810547s0.7045898,0.3085938,1.1235352,0.4365234
			s0.8486328,0.2685547,1.2890625,0.4208984c0.4399414,0.1523438,0.8696289,0.3320312,1.2885742,0.5380859
			s0.7939453,0.4648438,1.1240234,0.7773438s0.5966797,0.6943359,0.7988281,1.1445312
			c0.2021484,0.4511719,0.3037109,1,0.3037109,1.6464844c0,0.7021484-0.1225586,1.3613281-0.3676758,1.9755859
			s-0.5981445,1.1503906-1.0595703,1.6083984c-0.4619141,0.4580078-1.0317383,0.8183594-1.7099609,1.0810547
			s-1.4467773,0.3945312-2.3056641,0.3945312c-0.4902344,0-0.9785156-0.0498047-1.4648438-0.1494141
			s-0.9550781-0.2382812-1.4057617-0.4160156c-0.4511719-0.1767578-0.8754883-0.3896484-1.2729492-0.6386719
			c-0.3979492-0.2480469-0.7456055-0.5253906-1.0439453-0.8310547l0.9375-1.5126953
			c0.0776367-0.1132812,0.1806641-0.2070312,0.3085938-0.2822266c0.1279297-0.0742188,0.2626953-0.1113281,0.4047852-0.1113281
			c0.1918945,0,0.394043,0.0712891,0.6074219,0.2128906c0.2128906,0.1425781,0.4580078,0.2978516,0.7348633,0.46875
			c0.2768555,0.1699219,0.5981445,0.3261719,0.9638672,0.46875c0.3657227,0.1416016,0.8041992,0.2128906,1.3154297,0.2128906
			c0.7456055,0,1.3222656-0.1708984,1.730957-0.5117188c0.4082031-0.3408203,0.6123047-0.8476562,0.6123047-1.5224609
			c0-0.390625-0.1010742-0.7070312-0.3032227-0.9482422c-0.2026367-0.2412109-0.4672852-0.4433594-0.7939453-0.6074219
			c-0.3266602-0.1630859-0.6992188-0.3037109-1.1181641-0.4208984s-0.8486328-0.2460938-1.2890625-0.3886719
			c-0.4404297-0.1416016-0.8696289-0.3125-1.2885742-0.5107422c-0.4194336-0.1992188-0.7919922-0.4619141-1.1186523-0.7880859
			c-0.3266602-0.3271484-0.5908203-0.7314453-0.793457-1.2148438c-0.2021484-0.4824219-0.3037109-1.0830078-0.3037109-1.7998047
			c0-0.5751953,0.1137695-1.1328125,0.3408203-1.6728516c0.2275391-0.5390625,0.5610352-1.0185547,1.0014648-1.4375
			s0.9814453-0.7558594,1.6245117-1.0117188c0.6425781-0.2558594,1.3793945-0.3837891,2.2099609-0.3837891
			c0.9301758,0,1.7910156,0.1435547,2.5830078,0.4316406c0.7919922,0.2871094,1.4609375,0.6865234,2.0078125,1.1982422
			L172.2957306,152.214447z"/>
		<path style="fill:#1B75BC;" d="M193.4280548,160.9058533c0.1777344,0,0.3266602,0.0644531,0.4477539,0.1914062
			l1.2675781,1.3535156c-0.625,0.7949219-1.4008789,1.3984375-2.3276367,1.8105469s-2.0292969,0.6181641-3.3071289,0.6181641
			c-1.1577148,0-2.1982422-0.1972656-3.1210938-0.5917969c-0.9233398-0.3935547-1.7080078-0.9423828-2.3540039-1.6455078
			s-1.1435547-1.5371094-1.4912109-2.5029297c-0.3481445-0.9658203-0.5219727-2.0205078-0.5219727-3.1640625
			c0-0.7666016,0.0834961-1.4960938,0.2504883-2.1884766c0.1665039-0.6923828,0.4101562-1.3300781,0.7294922-1.9121094
			c0.3198242-0.5820312,0.7045898-1.1074219,1.1557617-1.5761719c0.4506836-0.46875,0.9604492-0.8681641,1.5283203-1.1982422
			c0.5683594-0.3300781,1.1879883-0.5820312,1.8588867-0.7568359c0.6708984-0.1738281,1.3862305-0.2607422,2.1464844-0.2607422
			c0.5678711,0,1.1054688,0.0498047,1.6132812,0.1494141s0.9819336,0.2382812,1.4223633,0.4150391
			c0.4399414,0.1777344,0.8466797,0.3925781,1.2192383,0.6445312c0.3730469,0.2519531,0.7084961,0.5273438,1.0068359,0.8251953
			l-1.0756836,1.4707031c-0.0639648,0.0917969-0.1459961,0.1738281-0.2451172,0.2441406
			c-0.0996094,0.0712891-0.234375,0.1074219-0.4047852,0.1074219s-0.3427734-0.0605469-0.5166016-0.1816406
			c-0.1743164-0.1201172-0.387207-0.2558594-0.6391602-0.4042969c-0.2519531-0.1494141-0.5683594-0.2841797-0.9477539-0.4052734
			c-0.3803711-0.1201172-0.8613281-0.1806641-1.4433594-0.1806641c-0.6464844,0-1.2392578,0.1171875-1.7788086,0.3515625
			c-0.5400391,0.234375-1.003418,0.5732422-1.3901367,1.0166016c-0.387207,0.4443359-0.6870117,0.9892578-0.8999023,1.6357422
			c-0.2133789,0.6455078-0.3198242,1.3808594-0.3198242,2.2041016c0,0.8310547,0.1152344,1.5712891,0.3461914,2.2216797
			c0.230957,0.6494141,0.546875,1.1982422,0.9482422,1.6455078c0.4008789,0.4472656,0.8696289,0.7861328,1.4057617,1.0166016
			c0.5361328,0.2314453,1.109375,0.3466797,1.7202148,0.3466797c0.3623047,0,0.6904297-0.0175781,0.9853516-0.0537109
			c0.2944336-0.0351562,0.5678711-0.0957031,0.8203125-0.1806641c0.2519531-0.0849609,0.4897461-0.1953125,0.7133789-0.3300781
			s0.4492188-0.3056641,0.6762695-0.5117188c0.078125-0.0634766,0.1601562-0.1171875,0.2451172-0.1591797
			C193.2366486,160.9273376,193.3289337,160.9058533,193.4280548,160.9058533z"/>
		<path style="fill:#1B75BC;" d="M207.4031525,164.7085876h-3.2167969v-15.4550781h3.2167969V164.7085876z"/>
		<path style="fill:#1B75BC;" d="M227.7259064,149.2535095v2.5029297h-6.625v3.9726562h5.1552734v2.4179688h-5.1552734v4.0585938
			h6.625v2.5029297h-9.8417969v-15.4550781H227.7259064z"/>
		<path style="fill:#1B75BC;" d="M239.3836212,149.2691345c0.0961914,0.0107422,0.1831055,0.0361328,0.2612305,0.0742188
			c0.078125,0.0390625,0.1523438,0.0908203,0.2236328,0.1552734c0.0708008,0.0634766,0.1489258,0.1484375,0.234375,0.2548828
			l7.7543945,9.8525391c-0.0288086-0.2695312-0.0498047-0.5322266-0.0639648-0.7880859
			c-0.0141602-0.2548828-0.0214844-0.4970703-0.0214844-0.7236328v-8.8408203h2.8227539v15.4550781h-1.6508789
			c-0.2485352,0-0.4580078-0.0410156-0.628418-0.1220703c-0.1704102-0.0820312-0.3374023-0.2226562-0.5004883-0.4208984
			l-7.7011719-9.7890625c0.0209961,0.2490234,0.0371094,0.4921875,0.0478516,0.7294922
			c0.0107422,0.2382812,0.0161133,0.4599609,0.0161133,0.6660156v8.9365234h-2.8227539v-15.4550781h1.6826172
			C239.1726837,149.2535095,239.2879181,149.2583923,239.3836212,149.2691345z"/>
		<path style="fill:#1B75BC;" d="M271.5989685,160.9058533c0.1777344,0,0.3266602,0.0644531,0.4477539,0.1914062
			l1.2675781,1.3535156c-0.625,0.7949219-1.4008789,1.3984375-2.3276367,1.8105469s-2.0292969,0.6181641-3.3071289,0.6181641
			c-1.1577148,0-2.1982422-0.1972656-3.1210938-0.5917969c-0.9233398-0.3935547-1.7080078-0.9423828-2.3540039-1.6455078
			s-1.1435547-1.5371094-1.4912109-2.5029297c-0.3481445-0.9658203-0.5219727-2.0205078-0.5219727-3.1640625
			c0-0.7666016,0.0834961-1.4960938,0.2504883-2.1884766c0.1665039-0.6923828,0.4101562-1.3300781,0.7294922-1.9121094
			c0.3198242-0.5820312,0.7045898-1.1074219,1.1557617-1.5761719c0.4506836-0.46875,0.9604492-0.8681641,1.5283203-1.1982422
			c0.5683594-0.3300781,1.1879883-0.5820312,1.8588867-0.7568359c0.6708984-0.1738281,1.3862305-0.2607422,2.1464844-0.2607422
			c0.5678711,0,1.1054688,0.0498047,1.6132812,0.1494141s0.9819336,0.2382812,1.4223633,0.4150391
			c0.4399414,0.1777344,0.8466797,0.3925781,1.2192383,0.6445312c0.3730469,0.2519531,0.7084961,0.5273438,1.0068359,0.8251953
			l-1.0756836,1.4707031c-0.0639648,0.0917969-0.1459961,0.1738281-0.2451172,0.2441406
			c-0.0996094,0.0712891-0.234375,0.1074219-0.4047852,0.1074219s-0.3427734-0.0605469-0.5166016-0.1816406
			c-0.1743164-0.1201172-0.387207-0.2558594-0.6391602-0.4042969c-0.2519531-0.1494141-0.5683594-0.2841797-0.9477539-0.4052734
			c-0.3803711-0.1201172-0.8613281-0.1806641-1.4433594-0.1806641c-0.6464844,0-1.2392578,0.1171875-1.7788086,0.3515625
			c-0.5400391,0.234375-1.003418,0.5732422-1.3901367,1.0166016c-0.387207,0.4443359-0.6870117,0.9892578-0.8999023,1.6357422
			c-0.2133789,0.6455078-0.3198242,1.3808594-0.3198242,2.2041016c0,0.8310547,0.1152344,1.5712891,0.3461914,2.2216797
			c0.230957,0.6494141,0.546875,1.1982422,0.9482422,1.6455078c0.4008789,0.4472656,0.8696289,0.7861328,1.4057617,1.0166016
			c0.5361328,0.2314453,1.109375,0.3466797,1.7202148,0.3466797c0.3623047,0,0.6904297-0.0175781,0.9853516-0.0537109
			c0.2944336-0.0351562,0.5678711-0.0957031,0.8203125-0.1806641c0.2519531-0.0849609,0.4897461-0.1953125,0.7133789-0.3300781
			s0.4492188-0.3056641,0.6762695-0.5117188c0.078125-0.0634766,0.1601562-0.1171875,0.2451172-0.1591797
			C271.4075623,160.9273376,271.4998474,160.9058533,271.5989685,160.9058533z"/>
		<path style="fill:#1B75BC;" d="M292.1990662,149.2535095v2.5029297h-6.625v3.9726562h5.1552734v2.4179688h-5.1552734v4.0585938
			h6.625v2.5029297h-9.8417969v-15.4550781H292.1990662z"/>
		<path style="fill:#1B75BC;" d="M310.2000427,152.214447c-0.0996094,0.1630859-0.2006836,0.2822266-0.3037109,0.3564453
			c-0.1030273,0.0751953-0.2358398,0.1123047-0.3994141,0.1123047c-0.15625,0-0.324707-0.0546875-0.5058594-0.1650391
			s-0.3925781-0.2294922-0.6337891-0.3574219c-0.2416992-0.1279297-0.5185547-0.2460938-0.8310547-0.3564453
			s-0.6777344-0.1650391-1.0966797-0.1650391c-0.7387695,0-1.2924805,0.1650391-1.6616211,0.4951172
			c-0.3696289,0.3300781-0.5541992,0.7617188-0.5541992,1.2939453c0,0.3408203,0.1010742,0.6230469,0.3037109,0.8466797
			c0.2021484,0.2236328,0.46875,0.4179688,0.7988281,0.5810547s0.7045898,0.3085938,1.1235352,0.4365234
			s0.8486328,0.2685547,1.2890625,0.4208984c0.4399414,0.1523438,0.8696289,0.3320312,1.2885742,0.5380859
			s0.7939453,0.4648438,1.1240234,0.7773438s0.5966797,0.6943359,0.7988281,1.1445312
			c0.2021484,0.4511719,0.3037109,1,0.3037109,1.6464844c0,0.7021484-0.1225586,1.3613281-0.3676758,1.9755859
			s-0.5981445,1.1503906-1.0595703,1.6083984c-0.4619141,0.4580078-1.0317383,0.8183594-1.7099609,1.0810547
			s-1.4467773,0.3945312-2.3056641,0.3945312c-0.4902344,0-0.9785156-0.0498047-1.4648438-0.1494141
			s-0.9550781-0.2382812-1.4057617-0.4160156c-0.4511719-0.1767578-0.8754883-0.3896484-1.2729492-0.6386719
			c-0.3979492-0.2480469-0.7456055-0.5253906-1.0439453-0.8310547l0.9375-1.5126953
			c0.0776367-0.1132812,0.1806641-0.2070312,0.3085938-0.2822266c0.1279297-0.0742188,0.2626953-0.1113281,0.4047852-0.1113281
			c0.1918945,0,0.394043,0.0712891,0.6074219,0.2128906c0.2128906,0.1425781,0.4580078,0.2978516,0.7348633,0.46875
			c0.2768555,0.1699219,0.5981445,0.3261719,0.9638672,0.46875c0.3657227,0.1416016,0.8041992,0.2128906,1.3154297,0.2128906
			c0.7456055,0,1.3222656-0.1708984,1.730957-0.5117188c0.4082031-0.3408203,0.6123047-0.8476562,0.6123047-1.5224609
			c0-0.390625-0.1010742-0.7070312-0.3032227-0.9482422c-0.2026367-0.2412109-0.4672852-0.4433594-0.7939453-0.6074219
			c-0.3266602-0.1630859-0.6992188-0.3037109-1.1181641-0.4208984s-0.8486328-0.2460938-1.2890625-0.3886719
			c-0.4404297-0.1416016-0.8696289-0.3125-1.2885742-0.5107422c-0.4194336-0.1992188-0.7919922-0.4619141-1.1186523-0.7880859
			c-0.3266602-0.3271484-0.5908203-0.7314453-0.793457-1.2148438c-0.2021484-0.4824219-0.3037109-1.0830078-0.3037109-1.7998047
			c0-0.5751953,0.1137695-1.1328125,0.3408203-1.6728516c0.2275391-0.5390625,0.5610352-1.0185547,1.0014648-1.4375
			s0.9814453-0.7558594,1.6245117-1.0117188c0.6425781-0.2558594,1.3793945-0.3837891,2.2099609-0.3837891
			c0.9301758,0,1.7910156,0.1435547,2.5830078,0.4316406c0.7919922,0.2871094,1.4609375,0.6865234,2.0078125,1.1982422
			L310.2000427,152.214447z"/>
	</g>
</g>
</svg>
